<svg width="24" height="24" viewBox="0 0 24 24" fill="none" xmlns="http://www.w3.org/2000/svg">
<path fill-rule="evenodd" clip-rule="evenodd" d="M9.99153 2.86268C12.4722 1.28487 15.902 2.01893 17.6359 4.50377C18.467 5.66815 18.7918 7.1194 18.5472 8.52846C18.429 9.19502 18.1717 9.82784 17.8004 10.3931C18.3447 11.4267 18.5261 12.6164 18.3193 13.7681C18.0704 15.1519 17.252 16.3669 16.0623 17.1136L11.7086 19.8896C9.22793 21.4674 5.80231 20.7333 4.06418 18.2485C3.22887 17.0841 2.90403 15.6328 3.15293 14.2238C3.27106 13.5614 3.5284 12.9244 3.89965 12.3591C3.35544 11.3255 3.17403 10.1358 3.38075 8.98409C3.62965 7.60033 4.44809 6.38534 5.63778 5.63862L9.99153 2.86268ZM5.85292 17.1094C6.6798 18.2991 8.16057 18.8475 9.56542 18.4847C9.87761 18.4004 10.1771 18.2696 10.4514 18.0966L14.8051 15.3207C15.5223 14.8693 16.0159 14.1394 16.1635 13.3083C16.3112 12.4604 16.1171 11.5871 15.6151 10.8868C14.7882 9.69707 13.3075 9.14864 11.9026 9.51145C11.5862 9.59582 11.2909 9.7266 11.0167 9.89957L9.3587 10.9585C9.27854 11.0133 9.18573 11.0513 9.09292 11.0766C8.67104 11.1863 8.22386 11.0218 7.97495 10.6632C7.82308 10.4522 7.76401 10.1907 7.81042 9.93332C7.85682 9.6802 8.00448 9.46082 8.21964 9.32582L12.5734 6.54988C12.6535 6.49504 12.7464 6.45707 12.8392 6.43176C13.261 6.32207 13.7082 6.4866 13.9571 6.8452C14.0921 7.03082 14.1554 7.26285 14.1343 7.49067L14.1174 7.65098L14.2778 7.7016C14.8895 7.88723 15.4675 8.1741 15.9821 8.55379L16.2057 8.71832L16.2859 8.46942C16.3323 8.33864 16.366 8.20364 16.3914 8.06442C16.539 7.21645 16.3449 6.34317 15.8429 5.64285C15.016 4.45317 13.5353 3.90473 12.1304 4.26754C11.814 4.35192 11.5187 4.4827 11.2445 4.65567L6.89073 7.4316C6.17354 7.88301 5.67995 8.61285 5.53229 9.44395C5.38464 10.2919 5.5787 11.1652 6.08073 11.8655C6.90761 13.0552 8.38839 13.6036 9.79323 13.2408C10.1096 13.1564 10.405 13.0257 10.6792 12.8527L12.3371 11.7938C12.4173 11.7389 12.5101 11.701 12.6029 11.6757C13.0248 11.566 13.472 11.7305 13.7209 12.0891C13.8728 12.3 13.9318 12.5616 13.8854 12.8189C13.839 13.0721 13.6914 13.2914 13.4762 13.4264L9.12245 16.2024C9.04229 16.2572 8.94948 16.2952 8.85667 16.3205C8.43479 16.4302 7.98761 16.2657 7.7387 15.9071C7.6037 15.7214 7.54042 15.4894 7.56151 15.2616L7.57839 15.1013L7.41807 15.0507C6.80636 14.865 6.22839 14.5782 5.7137 14.1985L5.49011 14.0339L5.40995 14.2829C5.36355 14.4136 5.32979 14.5486 5.30448 14.6879C5.15682 15.5358 5.35089 16.4091 5.85292 17.1094Z" fill="currentColor"/>
<mask id="mask0_203_30" style="mask-type:alpha" maskUnits="userSpaceOnUse" x="12" y="12" width="12" height="12">
<rect x="12" y="12" width="12" height="12" fill="currentColor"/>
</mask>
<g mask="url(#mask0_203_30)">
<path d="M18.0005 23.0005C17.3088 23.0005 16.6588 22.8692 16.0505 22.6067C15.4422 22.3442 14.913 21.988 14.463 21.538C14.013 21.088 13.6567 20.5588 13.3942 19.9505C13.1317 19.3422 13.0005 18.6922 13.0005 18.0005C13.0005 17.3088 13.1317 16.6588 13.3942 16.0505C13.6567 15.4422 14.013 14.913 14.463 14.463C14.913 14.013 15.4422 13.6567 16.0505 13.3942C16.6588 13.1317 17.3088 13.0005 18.0005 13.0005C18.6922 13.0005 19.3422 13.1317 19.9505 13.3942C20.5588 13.6567 21.088 14.013 21.538 14.463C21.988 14.913 22.3442 15.4422 22.6067 16.0505C22.8692 16.6588 23.0005 17.3088 23.0005 18.0005C23.0005 18.6922 22.8692 19.3422 22.6067 19.9505C22.3442 20.5588 21.988 21.088 21.538 21.538C21.088 21.988 20.5588 22.3442 19.9505 22.6067C19.3422 22.8692 18.6922 23.0005 18.0005 23.0005ZM18.0005 22.0005C19.1172 22.0005 20.063 21.613 20.838 20.838C21.613 20.063 22.0005 19.1172 22.0005 18.0005C22.0005 16.8838 21.613 15.938 20.838 15.163C20.063 14.388 19.1172 14.0005 18.0005 14.0005C16.8838 14.0005 15.938 14.388 15.163 15.163C14.388 15.938 14.0005 16.8838 14.0005 18.0005C14.0005 19.1172 14.388 20.063 15.163 20.838C15.938 21.613 16.8838 22.0005 18.0005 22.0005ZM18.0005 21.0005C17.1672 21.0005 16.4588 20.7088 15.8755 20.1255C15.2922 19.5422 15.0005 18.8338 15.0005 18.0005C15.0005 17.1672 15.2922 16.4588 15.8755 15.8755C16.4588 15.2922 17.1672 15.0005 18.0005 15.0005C18.8338 15.0005 19.5422 15.2922 20.1255 15.8755C20.7088 16.4588 21.0005 17.1672 21.0005 18.0005C21.0005 18.8338 20.7088 19.5422 20.1255 20.1255C19.5422 20.7088 18.8338 21.0005 18.0005 21.0005ZM18.0005 20.0005C18.5505 20.0005 19.0213 19.8047 19.413 19.413C19.8047 19.0213 20.0005 18.5505 20.0005 18.0005C20.0005 17.4505 19.8047 16.9797 19.413 16.588C19.0213 16.1963 18.5505 16.0005 18.0005 16.0005C17.4505 16.0005 16.9797 16.1963 16.588 16.588C16.1963 16.9797 16.0005 17.4505 16.0005 18.0005C16.0005 18.5505 16.1963 19.0213 16.588 19.413C16.9797 19.8047 17.4505 20.0005 18.0005 20.0005ZM18.0005 19.0005C17.7255 19.0005 17.4901 18.9026 17.2942 18.7067C17.0984 18.5109 17.0005 18.2755 17.0005 18.0005C17.0005 17.7255 17.0984 17.4901 17.2942 17.2942C17.4901 17.0984 17.7255 17.0005 18.0005 17.0005C18.2755 17.0005 18.5109 17.0984 18.7067 17.2942C18.9026 17.4901 19.0005 17.7255 19.0005 18.0005C19.0005 18.2755 18.9026 18.5109 18.7067 18.7067C18.5109 18.9026 18.2755 19.0005 18.0005 19.0005Z" fill="currentColor"/>
</g>
</svg>
